<mxfile host="app.diagrams.net" modified="2024-02-19T09:22:27.875Z" agent="Mozilla/5.0 (Windows NT 10.0; Win64; x64) AppleWebKit/537.36 (KHTML, like Gecko) Chrome/121.0.0.0 Safari/537.36" etag="3f6hBGoIc4ekqRml_4Uc" version="23.1.5" type="google">
  <diagram name="Page-1" id="hBtbJ4oV5RMW667chW4H">
    <mxGraphModel grid="1" page="1" gridSize="10" guides="1" tooltips="1" connect="1" arrows="1" fold="1" pageScale="1" pageWidth="850" pageHeight="1100" math="0" shadow="0">
      <root>
        <mxCell id="0" />
        <mxCell id="1" parent="0" />
        <UserObject label="" id="MdAz51cne8YWmNNmxkgF-4">
          <mxCell style="edgeStyle=orthogonalEdgeStyle;rounded=0;orthogonalLoop=1;jettySize=auto;html=1;strokeWidth=1;" edge="1" parent="1" source="7RvFlOEr3dKJYXM7OKQK-3" target="MdAz51cne8YWmNNmxkgF-2">
            <mxGeometry relative="1" as="geometry">
              <mxPoint x="240" y="200" as="sourcePoint" />
            </mxGeometry>
          </mxCell>
        </UserObject>
        <UserObject label="&lt;b&gt;Select IMOs&lt;/b&gt;&lt;br&gt;&lt;div style=&quot;&quot;&gt;&lt;b&gt;&amp;nbsp;&lt;/b&gt;&amp;nbsp; &amp;nbsp;lon= [-10,&lt;span style=&quot;background-color: initial;&quot;&gt;2]&lt;/span&gt;&lt;/div&gt;&lt;div style=&quot;&quot;&gt;&amp;nbsp; &amp;nbsp; lat=[49,61]&lt;/div&gt;" link="https://drive.google.com/file/d/1FqXKwPpEWYIiJ0Yrw0mRg3pgFCfmky-b/view?usp=drive_link" id="MdAz51cne8YWmNNmxkgF-1">
          <mxCell style="rounded=1;whiteSpace=wrap;html=1;fillColor=#f8cecc;strokeColor=#b85450;" vertex="1" parent="1">
            <mxGeometry x="160" y="120" width="160" height="60" as="geometry" />
          </mxCell>
        </UserObject>
        <UserObject label="&lt;b&gt;Extract scatter of stops&lt;/b&gt;&lt;br style=&quot;font-size: 11px;&quot;&gt;&lt;font size=&quot;1&quot;&gt;sog&amp;lt;3 navigationall_status=&#39;Moored&#39;&lt;/font&gt;" link="https://drive.google.com/file/d/1FyS_QMU4UMu9ebTPP8LdTEyMM2z0flMY/view?usp=drive_link" id="MdAz51cne8YWmNNmxkgF-2">
          <mxCell style="rounded=1;whiteSpace=wrap;html=1;fillColor=#f8cecc;strokeColor=#b85450;" vertex="1" parent="1">
            <mxGeometry x="145" y="240" width="190" height="60" as="geometry" />
          </mxCell>
        </UserObject>
        <mxCell id="MdAz51cne8YWmNNmxkgF-9" value="" style="edgeStyle=orthogonalEdgeStyle;rounded=0;orthogonalLoop=1;jettySize=auto;html=1;" edge="1" parent="1" source="MdAz51cne8YWmNNmxkgF-3">
          <mxGeometry relative="1" as="geometry">
            <mxPoint x="240" y="480.0000000000002" as="targetPoint" />
          </mxGeometry>
        </mxCell>
        <UserObject label="Clustering of stops" link="https://drive.google.com/file/d/12v6zpNkd7JtDQ4gUDDveIrqvGd6x_y31/view?usp=drive_link" id="MdAz51cne8YWmNNmxkgF-3">
          <mxCell style="rounded=1;whiteSpace=wrap;html=1;fillColor=#f8cecc;strokeColor=#b85450;" vertex="1" parent="1">
            <mxGeometry x="160" y="360" width="160" height="80" as="geometry" />
          </mxCell>
        </UserObject>
        <mxCell id="MdAz51cne8YWmNNmxkgF-7" value="" style="edgeStyle=orthogonalEdgeStyle;rounded=0;orthogonalLoop=1;jettySize=auto;html=1;" edge="1" parent="1" source="MdAz51cne8YWmNNmxkgF-6" target="MdAz51cne8YWmNNmxkgF-1">
          <mxGeometry relative="1" as="geometry" />
        </mxCell>
        <UserObject label="AIS" link="https://drive.google.com/drive/folders/1ejvx1geHP0oGP6TzdX8fh3LBkTn8D73B?usp=drive_link" id="MdAz51cne8YWmNNmxkgF-6">
          <mxCell style="whiteSpace=wrap;html=1;aspect=fixed;fillColor=#dae8fc;strokeColor=#6c8ebf;" vertex="1" parent="1">
            <mxGeometry x="40" y="110" width="80" height="80" as="geometry" />
          </mxCell>
        </UserObject>
        <mxCell id="MdAz51cne8YWmNNmxkgF-11" value="" style="edgeStyle=orthogonalEdgeStyle;rounded=0;orthogonalLoop=1;jettySize=auto;html=1;fillColor=#d5e8d4;strokeColor=#82b366;strokeWidth=3;" edge="1" parent="1" target="MdAz51cne8YWmNNmxkgF-10">
          <mxGeometry relative="1" as="geometry">
            <mxPoint x="300" y="500.0000000000002" as="sourcePoint" />
          </mxGeometry>
        </mxCell>
        <mxCell id="MdAz51cne8YWmNNmxkgF-18" value="" style="edgeStyle=orthogonalEdgeStyle;rounded=0;orthogonalLoop=1;jettySize=auto;html=1;fillColor=#f5f5f5;strokeColor=#666666;" edge="1" parent="1" source="MdAz51cne8YWmNNmxkgF-10" target="MdAz51cne8YWmNNmxkgF-17">
          <mxGeometry relative="1" as="geometry" />
        </mxCell>
        <mxCell id="MdAz51cne8YWmNNmxkgF-10" value="Run Sea Model&lt;br&gt;(with 0.01% fuel modifiation)" style="rounded=1;whiteSpace=wrap;html=1;fillColor=#e1d5e7;strokeColor=#9673a6;" vertex="1" parent="1">
          <mxGeometry x="380" y="460" width="160" height="80" as="geometry" />
        </mxCell>
        <mxCell id="MdAz51cne8YWmNNmxkgF-12" value="21th Feb" style="rounded=0;whiteSpace=wrap;html=1;fillColor=#f8cecc;strokeColor=#b85450;" vertex="1" parent="1">
          <mxGeometry x="40" y="20" width="120" height="20" as="geometry" />
        </mxCell>
        <mxCell id="MdAz51cne8YWmNNmxkgF-13" value="28th Feb" style="rounded=0;whiteSpace=wrap;html=1;fillColor=#e1d5e7;strokeColor=#9673a6;" vertex="1" parent="1">
          <mxGeometry x="40" y="40" width="120" height="20" as="geometry" />
        </mxCell>
        <mxCell id="MdAz51cne8YWmNNmxkgF-14" value="6th Mar" style="rounded=0;whiteSpace=wrap;html=1;fillColor=#d5e8d4;strokeColor=#82b366;" vertex="1" parent="1">
          <mxGeometry x="40" y="60" width="120" height="20" as="geometry" />
        </mxCell>
        <mxCell id="nuNDnTv0po_VqvQx6A3_-1" style="edgeStyle=orthogonalEdgeStyle;rounded=0;orthogonalLoop=1;jettySize=auto;html=1;exitX=1;exitY=0.5;exitDx=0;exitDy=0;" edge="1" parent="1" source="MdAz51cne8YWmNNmxkgF-16">
          <mxGeometry relative="1" as="geometry">
            <mxPoint x="320" y="500" as="targetPoint" />
          </mxGeometry>
        </mxCell>
        <UserObject label="Top 50 density zones&lt;br&gt;Close to existing ports" link="https://drive.google.com/file/d/16ZzGkt8eTYHNlNQ2etfHkFPOfk94c7vk/view?usp=drive_link" id="MdAz51cne8YWmNNmxkgF-16">
          <mxCell style="rounded=0;whiteSpace=wrap;html=1;fillColor=#e1d5e7;strokeColor=#9673a6;" vertex="1" parent="1">
            <mxGeometry x="160" y="480" width="160" height="40" as="geometry" />
          </mxCell>
        </UserObject>
        <mxCell id="MdAz51cne8YWmNNmxkgF-23" value="" style="edgeStyle=orthogonalEdgeStyle;rounded=0;orthogonalLoop=1;jettySize=auto;html=1;fillColor=#f5f5f5;strokeColor=#666666;" edge="1" parent="1" source="MdAz51cne8YWmNNmxkgF-17" target="MdAz51cne8YWmNNmxkgF-19">
          <mxGeometry relative="1" as="geometry" />
        </mxCell>
        <mxCell id="nuNDnTv0po_VqvQx6A3_-2" value="" style="edgeStyle=orthogonalEdgeStyle;rounded=0;orthogonalLoop=1;jettySize=auto;html=1;fillColor=#f5f5f5;strokeColor=#666666;" edge="1" parent="1" source="MdAz51cne8YWmNNmxkgF-17" target="MdAz51cne8YWmNNmxkgF-3">
          <mxGeometry relative="1" as="geometry" />
        </mxCell>
        <mxCell id="MdAz51cne8YWmNNmxkgF-17" value="Filter on 12nm and 3nm/h" style="rounded=1;whiteSpace=wrap;html=1;fillColor=#d5e8d4;strokeColor=#82b366;" vertex="1" parent="1">
          <mxGeometry x="380" y="360" width="160" height="80" as="geometry" />
        </mxCell>
        <mxCell id="MdAz51cne8YWmNNmxkgF-19" value="Aggregate by category, port, type." style="rounded=1;whiteSpace=wrap;html=1;fillColor=#d5e8d4;strokeColor=#82b366;" vertex="1" parent="1">
          <mxGeometry x="380" y="240" width="160" height="80" as="geometry" />
        </mxCell>
        <mxCell id="MdAz51cne8YWmNNmxkgF-22" value="" style="edgeStyle=orthogonalEdgeStyle;rounded=0;orthogonalLoop=1;jettySize=auto;html=1;fillColor=#f5f5f5;strokeColor=#666666;" edge="1" parent="1" source="MdAz51cne8YWmNNmxkgF-21" target="MdAz51cne8YWmNNmxkgF-10">
          <mxGeometry relative="1" as="geometry" />
        </mxCell>
        <mxCell id="MdAz51cne8YWmNNmxkgF-21" value="Validate with MRV data &lt;br&gt;SEA MODEL" style="rounded=1;whiteSpace=wrap;html=1;fillColor=#fff2cc;strokeColor=#d6b656;" vertex="1" parent="1">
          <mxGeometry x="600" y="460" width="160" height="80" as="geometry" />
        </mxCell>
        <mxCell id="MdAz51cne8YWmNNmxkgF-25" value="" style="edgeStyle=orthogonalEdgeStyle;rounded=0;orthogonalLoop=1;jettySize=auto;html=1;" edge="1" parent="1" source="MdAz51cne8YWmNNmxkgF-24" target="MdAz51cne8YWmNNmxkgF-3">
          <mxGeometry relative="1" as="geometry" />
        </mxCell>
        <UserObject label="PORTS.csv" link="https://drive.google.com/file/d/1byVB-8wvwncgulUTHdgVxNQ-RQQkrqP7/view?usp=drive_link" id="MdAz51cne8YWmNNmxkgF-24">
          <mxCell style="whiteSpace=wrap;html=1;aspect=fixed;fillColor=#dae8fc;strokeColor=#6c8ebf;" vertex="1" parent="1">
            <mxGeometry x="40" y="360" width="80" height="80" as="geometry" />
          </mxCell>
        </UserObject>
        <mxCell id="7RvFlOEr3dKJYXM7OKQK-5" value="" style="edgeStyle=orthogonalEdgeStyle;rounded=0;orthogonalLoop=1;jettySize=auto;html=1;strokeWidth=4;fillColor=#dae8fc;strokeColor=#6c8ebf;" edge="1" parent="1" target="7RvFlOEr3dKJYXM7OKQK-3">
          <mxGeometry relative="1" as="geometry">
            <mxPoint x="240" y="200" as="sourcePoint" />
            <mxPoint x="240" y="240" as="targetPoint" />
          </mxGeometry>
        </mxCell>
        <UserObject label="imos_UK_port_ranking.csv" link="https://drive.google.com/file/d/1lgP5dSIKAGuvc9id7CwOwQqFMj-tR4wi/view?usp=drive_link" id="7RvFlOEr3dKJYXM7OKQK-3">
          <mxCell style="rounded=0;whiteSpace=wrap;html=1;fillColor=#dae8fc;strokeColor=#6c8ebf;" vertex="1" parent="1">
            <mxGeometry x="160" y="180" width="160" height="20" as="geometry" />
          </mxCell>
        </UserObject>
        <UserObject label="all_stops_UK.csv" link="https://drive.google.com/file/d/1lgP5dSIKAGuvc9id7CwOwQqFMj-tR4wi/view?usp=drive_link" id="7RvFlOEr3dKJYXM7OKQK-10">
          <mxCell style="rounded=0;whiteSpace=wrap;html=1;fillColor=#dae8fc;strokeColor=#6c8ebf;" vertex="1" parent="1">
            <mxGeometry x="160" y="300" width="160" height="20" as="geometry" />
          </mxCell>
        </UserObject>
        <UserObject label="" id="7RvFlOEr3dKJYXM7OKQK-13">
          <mxCell style="edgeStyle=orthogonalEdgeStyle;rounded=0;orthogonalLoop=1;jettySize=auto;html=1;strokeWidth=1;" edge="1" parent="1">
            <mxGeometry relative="1" as="geometry">
              <mxPoint x="239.5" y="320" as="sourcePoint" />
              <mxPoint x="239.5" y="360" as="targetPoint" />
            </mxGeometry>
          </mxCell>
        </UserObject>
        <mxCell id="nuNDnTv0po_VqvQx6A3_-4" value="" style="edgeStyle=orthogonalEdgeStyle;rounded=0;orthogonalLoop=1;jettySize=auto;html=1;" edge="1" parent="1">
          <mxGeometry relative="1" as="geometry">
            <mxPoint x="200" y="39" as="sourcePoint" />
            <mxPoint x="240" y="39" as="targetPoint" />
          </mxGeometry>
        </mxCell>
        <mxCell id="nuNDnTv0po_VqvQx6A3_-6" value="" style="edgeStyle=orthogonalEdgeStyle;rounded=0;orthogonalLoop=1;jettySize=auto;html=1;fillColor=#f5f5f5;strokeColor=#666666;" edge="1" parent="1">
          <mxGeometry relative="1" as="geometry">
            <mxPoint x="200" y="80" as="sourcePoint" />
            <mxPoint x="240" y="80" as="targetPoint" />
            <Array as="points">
              <mxPoint x="200" y="80" />
              <mxPoint x="200" y="80" />
            </Array>
          </mxGeometry>
        </mxCell>
        <mxCell id="nuNDnTv0po_VqvQx6A3_-7" value="Done" style="text;html=1;align=center;verticalAlign=middle;whiteSpace=wrap;rounded=0;" vertex="1" parent="1">
          <mxGeometry x="190" y="10" width="60" height="30" as="geometry" />
        </mxCell>
        <mxCell id="nuNDnTv0po_VqvQx6A3_-8" value="To do" style="text;html=1;align=center;verticalAlign=middle;whiteSpace=wrap;rounded=0;" vertex="1" parent="1">
          <mxGeometry x="190" y="50" width="60" height="30" as="geometry" />
        </mxCell>
      </root>
    </mxGraphModel>
  </diagram>
</mxfile>
